<mxfile host="Electron" agent="Mozilla/5.0 (Windows NT 10.0; Win64; x64) AppleWebKit/537.36 (KHTML, like Gecko) draw.io/26.1.1 Chrome/132.0.6834.210 Electron/34.3.3 Safari/537.36" version="26.1.1">
  <diagram name="Page-1" id="flVwy_8u9ZJ36ITSE2dx">
    <mxGraphModel dx="1035" dy="616" grid="1" gridSize="10" guides="1" tooltips="1" connect="1" arrows="1" fold="1" page="1" pageScale="1" pageWidth="1100" pageHeight="850" math="0" shadow="0">
      <root>
        <mxCell id="0" />
        <mxCell id="1" parent="0" />
        <mxCell id="OM-WZS_Kf4vFHg-LFvVT-10" value="mainThread" style="edgeStyle=orthogonalEdgeStyle;rounded=0;orthogonalLoop=1;jettySize=auto;html=1;exitX=1;exitY=0.5;exitDx=0;exitDy=0;entryX=0;entryY=0.5;entryDx=0;entryDy=0;" edge="1" parent="1" source="OM-WZS_Kf4vFHg-LFvVT-6" target="OM-WZS_Kf4vFHg-LFvVT-7">
          <mxGeometry relative="1" as="geometry" />
        </mxCell>
        <mxCell id="OM-WZS_Kf4vFHg-LFvVT-6" value="STARTING&lt;div&gt;SELF&lt;/div&gt;" style="rounded=0;whiteSpace=wrap;html=1;" vertex="1" parent="1">
          <mxGeometry x="40" y="40" width="120" height="60" as="geometry" />
        </mxCell>
        <mxCell id="OM-WZS_Kf4vFHg-LFvVT-9" style="edgeStyle=orthogonalEdgeStyle;rounded=0;orthogonalLoop=1;jettySize=auto;html=1;exitX=0.5;exitY=1;exitDx=0;exitDy=0;entryX=0.5;entryY=0;entryDx=0;entryDy=0;shape=link;" edge="1" parent="1" source="OM-WZS_Kf4vFHg-LFvVT-7" target="OM-WZS_Kf4vFHg-LFvVT-8">
          <mxGeometry relative="1" as="geometry" />
        </mxCell>
        <mxCell id="OM-WZS_Kf4vFHg-LFvVT-7" value="STARTING&lt;div&gt;OTHER&lt;/div&gt;" style="rounded=0;whiteSpace=wrap;html=1;" vertex="1" parent="1">
          <mxGeometry x="320" y="40" width="120" height="60" as="geometry" />
        </mxCell>
        <mxCell id="OM-WZS_Kf4vFHg-LFvVT-8" value="STARTING&lt;div&gt;SELF&lt;/div&gt;" style="rounded=0;whiteSpace=wrap;html=1;" vertex="1" parent="1">
          <mxGeometry x="320" y="220" width="120" height="60" as="geometry" />
        </mxCell>
      </root>
    </mxGraphModel>
  </diagram>
</mxfile>
